<?xml version="1.0" encoding="utf-8"?>
<!-- Generator: Adobe Illustrator 20.0.0, SVG Export Plug-In . SVG Version: 6.00 Build 0)  -->
<svg version="1.1" id="Capa_1" xmlns="http://www.w3.org/2000/svg" xmlns:xlink="http://www.w3.org/1999/xlink" x="0px" y="0px"
	 width="200px" height="123px" viewBox="0 0 200 123" style="enable-background:new 0 0 200 123;" xml:space="preserve">
<style type="text/css">
	.st0{fill:#131213;}
	.st1{fill:#8BB561;}
	.st2{fill:#FFFFFF;}
</style>
<rect x="96.7" class="st0" width="72.4" height="18.9"/>
<rect y="15.6" class="st1" width="200" height="107.4"/>
<path class="st0" d="M185.2,70.2c0,12.1-9.8,22-21.9,22H36.7c-12.1,0-21.9-9.8-21.9-22l0,0c0-12.1,9.8-21.9,21.9-21.9h126.5
	C175.4,48.2,185.2,58,185.2,70.2L185.2,70.2z"/>
<path class="st2" d="M54.8,70.2c0,7.4-6,13.4-13.4,13.4S28,77.6,28,70.2s6-13.4,13.4-13.4C48.8,56.8,54.8,62.8,54.8,70.2z"/>
<path class="st2" d="M171.2,70.2c0,7.4-6,13.4-13.4,13.4s-13.4-6-13.4-13.4s6-13.4,13.4-13.4C165.2,56.8,171.2,62.8,171.2,70.2z"/>
</svg>
